<svg width="32" height="32" viewBox="0 0 32 32" fill="none" xmlns="http://www.w3.org/2000/svg">
<path d="M20.2906 22.5821L18.8906 19.0487M25.6666 3.66675H6.33329C5.62605 3.66675 4.94777 3.9477 4.44767 4.4478C3.94758 4.94789 3.66663 5.62617 3.66663 6.33341V25.6667C3.66663 26.374 3.94758 27.0523 4.44767 27.5524C4.94777 28.0525 5.62605 28.3334 6.33329 28.3334H25.6666C26.3739 28.3334 27.0521 28.0525 27.5522 27.5524C28.0523 27.0523 28.3333 26.374 28.3333 25.6667V6.33341C28.3333 5.62617 28.0523 4.94789 27.5522 4.4478C27.0521 3.9477 26.3739 3.66675 25.6666 3.66675Z" stroke="#FF6B00" stroke-width="0.5" stroke-linecap="round" stroke-linejoin="round"/>
<path d="M21.5573 19.0486L19.8906 23.8486C19.7573 24.1819 19.4906 24.3819 19.1573 24.3819H18.9573M17.5999 21.2153C17.5999 21.9486 16.9999 22.5486 16.2666 22.5486C15.5333 22.5486 14.9333 21.9486 14.9333 21.2153V20.3486C14.9333 19.6153 15.5333 19.0153 16.2666 19.0153C16.9999 19.0153 17.5999 19.6153 17.5999 20.3486M17.5999 22.5486V19.0153M10.4426 22.5486V17.2153H12.1759C13.1759 17.2153 13.9759 18.0153 13.9759 19.0153C13.9759 20.0153 13.1759 20.8153 12.1759 20.8153H10.4426M19.9039 15.5813V7.61792H22.4919C23.9853 7.61792 25.1799 8.81192 25.1799 10.3053C25.1799 11.7986 23.9853 12.9933 22.4919 12.9933H19.9039M22.6546 12.9899L25.1799 15.5813M17.3439 7.61792V15.5813M6.81995 15.5813V7.61792L10.8019 15.5813L14.7833 7.61792V15.5813" stroke="#FF6B00" stroke-width="0.5" stroke-linecap="round" stroke-linejoin="round"/>
</svg>
