<svg width="24" height="24" viewBox="0 0 24 24" fill="none" xmlns="http://www.w3.org/2000/svg">
<path d="M6.86994 14.33L5.03994 20.73C4.91994 21.13 5.06994 21.57 5.40994 21.81C5.74994 22.06 6.20994 22.07 6.54994 21.83L11.9999 18.2L17.4499 21.83C17.6188 21.9446 17.819 22.0042 18.0231 22.0006C18.2272 21.997 18.4252 21.9304 18.5899 21.81C18.9299 21.56 19.0799 21.13 18.9599 20.73L17.1299 14.33L21.6699 10.25C21.9699 9.98 22.0799 9.56 21.9499 9.19C21.8199 8.81 21.4799 8.55 21.0799 8.51L15.3799 8.06L12.9099 2.6C12.831 2.42473 12.7032 2.27598 12.5417 2.17163C12.3803 2.06728 12.1922 2.01176 11.9999 2.01176C11.8077 2.01176 11.6196 2.06728 11.4582 2.17163C11.2967 2.27598 11.1689 2.42473 11.0899 2.6L8.61994 8.06L2.91994 8.51C2.51994 8.54 2.17994 8.81 2.04994 9.19C1.91994 9.57 2.02994 9.99 2.32994 10.25L6.86994 14.33Z" fill="#F8DF50"/>
</svg>
