<svg width="212" height="56" viewBox="0 0 212 56" fill="none" xmlns="http://www.w3.org/2000/svg">
<g filter="url(#filter0_d_4_22)">
<rect x="4" width="204" height="48" rx="8" fill="#FF6B00" shape-rendering="crispEdges"/>
<path d="M88.5224 29H87.0824V23.672H81.2264V29H79.7864V17.576H81.2264V22.408H87.0824V17.576H88.5224V29ZM98.8138 29L97.4378 25.464H92.9098L91.5498 29H90.0938L94.5578 17.528H95.8538L100.302 29H98.8138ZM95.7258 20.728C95.6938 20.6427 95.6404 20.488 95.5658 20.264C95.4911 20.04 95.4164 19.8107 95.3418 19.576C95.2778 19.3307 95.2244 19.144 95.1818 19.016C95.1284 19.2293 95.0698 19.448 95.0058 19.672C94.9524 19.8853 94.8938 20.0827 94.8298 20.264C94.7764 20.4453 94.7284 20.6 94.6858 20.728L93.3898 24.184H97.0058L95.7258 20.728ZM109.657 14.024C109.614 14.5573 109.481 15.0053 109.257 15.368C109.043 15.7307 108.723 16.0027 108.297 16.184C107.87 16.3653 107.315 16.456 106.633 16.456C105.939 16.456 105.379 16.3653 104.953 16.184C104.537 16.0027 104.233 15.736 104.041 15.384C103.849 15.0213 103.731 14.568 103.689 14.024H105.001C105.054 14.6 105.203 14.9893 105.449 15.192C105.705 15.384 106.11 15.48 106.665 15.48C107.155 15.48 107.539 15.3787 107.817 15.176C108.105 14.9627 108.275 14.5787 108.329 14.024H109.657ZM101.881 17.576H103.225V23.848C103.225 24.1147 103.219 24.408 103.209 24.728C103.209 25.0373 103.203 25.3467 103.193 25.656C103.182 25.9653 103.166 26.2427 103.145 26.488C103.134 26.7227 103.123 26.904 103.113 27.032H103.177L109.465 17.576H111.065V29H109.72V22.792C109.72 22.504 109.726 22.1947 109.737 21.864C109.747 21.5227 109.758 21.1973 109.769 20.888C109.79 20.568 109.806 20.2853 109.817 20.04C109.827 19.7947 109.838 19.6133 109.849 19.496H109.785L103.481 29H101.881V17.576ZM117.762 29H116.322V18.84H112.754V17.576H121.314V18.84H117.762V29ZM123.052 17.576H124.396V23.848C124.396 24.1147 124.391 24.408 124.38 24.728C124.38 25.0373 124.375 25.3467 124.364 25.656C124.354 25.9653 124.338 26.2427 124.316 26.488C124.306 26.7227 124.295 26.904 124.284 27.032H124.348L130.636 17.576H132.236V29H130.892V22.792C130.892 22.504 130.898 22.1947 130.908 21.864C130.919 21.5227 130.93 21.1973 130.94 20.888C130.962 20.568 130.978 20.2853 130.988 20.04C130.999 19.7947 131.01 19.6133 131.02 19.496H130.956L124.652 29H123.052V17.576Z" fill="#F5F5F5"/>
</g>
<defs>
<filter id="filter0_d_4_22" x="0" y="0" width="212" height="56" filterUnits="userSpaceOnUse" color-interpolation-filters="sRGB">
<feFlood flood-opacity="0" result="BackgroundImageFix"/>
<feColorMatrix in="SourceAlpha" type="matrix" values="0 0 0 0 0 0 0 0 0 0 0 0 0 0 0 0 0 0 127 0" result="hardAlpha"/>
<feOffset dy="4"/>
<feGaussianBlur stdDeviation="2"/>
<feComposite in2="hardAlpha" operator="out"/>
<feColorMatrix type="matrix" values="0 0 0 0 0 0 0 0 0 0 0 0 0 0 0 0 0 0 0.25 0"/>
<feBlend mode="normal" in2="BackgroundImageFix" result="effect1_dropShadow_4_22"/>
<feBlend mode="normal" in="SourceGraphic" in2="effect1_dropShadow_4_22" result="shape"/>
</filter>
</defs>
</svg>
