<svg width="707" height="60" viewBox="0 0 707 60" fill="none" xmlns="http://www.w3.org/2000/svg">
<g filter="url(#filter0_d_5_26)">
<rect x="4.5" y="0.5" width="698" height="51" rx="7.5" stroke="#FF6B00" shape-rendering="crispEdges"/>
<path d="M270.427 31V19.576H279.003V31H277.579V20.84H271.867V31H270.427ZM292.098 25.272C292.098 26.1573 291.986 26.9627 291.762 27.688C291.538 28.4027 291.202 29.0213 290.754 29.544C290.317 30.0667 289.767 30.4667 289.106 30.744C288.455 31.0213 287.698 31.16 286.834 31.16C285.938 31.16 285.159 31.0213 284.498 30.744C283.837 30.456 283.287 30.056 282.85 29.544C282.413 29.0213 282.087 28.3973 281.874 27.672C281.661 26.9467 281.554 26.1413 281.554 25.256C281.554 24.0827 281.746 23.0587 282.13 22.184C282.514 21.3093 283.095 20.6267 283.874 20.136C284.663 19.6453 285.655 19.4 286.85 19.4C287.991 19.4 288.951 19.6453 289.73 20.136C290.509 20.616 291.095 21.2987 291.49 22.184C291.895 23.0587 292.098 24.088 292.098 25.272ZM283.074 25.272C283.074 26.232 283.207 27.0587 283.474 27.752C283.741 28.4453 284.151 28.9787 284.706 29.352C285.271 29.7253 285.981 29.912 286.834 29.912C287.698 29.912 288.402 29.7253 288.946 29.352C289.501 28.9787 289.911 28.4453 290.178 27.752C290.445 27.0587 290.578 26.232 290.578 25.272C290.578 23.832 290.279 22.7067 289.682 21.896C289.085 21.0747 288.141 20.664 286.85 20.664C285.986 20.664 285.271 20.8507 284.706 21.224C284.151 21.5867 283.741 22.1147 283.474 22.808C283.207 23.4907 283.074 24.312 283.074 25.272ZM302.014 19.576V29.72H303.47V34.008H302.094V31H294.238V34.008H292.862V29.72H293.742C294.126 29.0587 294.488 28.3173 294.83 27.496C295.182 26.6747 295.491 25.816 295.758 24.92C296.024 24.0133 296.243 23.1067 296.414 22.2C296.584 21.2933 296.691 20.4187 296.734 19.576H302.014ZM297.998 20.872C297.955 21.4907 297.848 22.1893 297.678 22.968C297.518 23.7467 297.31 24.5467 297.054 25.368C296.808 26.1787 296.531 26.9627 296.222 27.72C295.923 28.4773 295.603 29.144 295.262 29.72H300.59V20.872H297.998ZM315.348 25.272C315.348 26.1573 315.236 26.9627 315.012 27.688C314.788 28.4027 314.452 29.0213 314.004 29.544C313.567 30.0667 313.017 30.4667 312.356 30.744C311.705 31.0213 310.948 31.16 310.084 31.16C309.188 31.16 308.409 31.0213 307.748 30.744C307.087 30.456 306.537 30.056 306.1 29.544C305.663 29.0213 305.337 28.3973 305.124 27.672C304.911 26.9467 304.804 26.1413 304.804 25.256C304.804 24.0827 304.996 23.0587 305.38 22.184C305.764 21.3093 306.345 20.6267 307.124 20.136C307.913 19.6453 308.905 19.4 310.1 19.4C311.241 19.4 312.201 19.6453 312.98 20.136C313.759 20.616 314.345 21.2987 314.74 22.184C315.145 23.0587 315.348 24.088 315.348 25.272ZM306.324 25.272C306.324 26.232 306.457 27.0587 306.724 27.752C306.991 28.4453 307.401 28.9787 307.956 29.352C308.521 29.7253 309.231 29.912 310.084 29.912C310.948 29.912 311.652 29.7253 312.196 29.352C312.751 28.9787 313.161 28.4453 313.428 27.752C313.695 27.0587 313.828 26.232 313.828 25.272C313.828 23.832 313.529 22.7067 312.932 21.896C312.335 21.0747 311.391 20.664 310.1 20.664C309.236 20.664 308.521 20.8507 307.956 21.224C307.401 21.5867 306.991 22.1147 306.724 22.808C306.457 23.4907 306.324 24.312 306.324 25.272ZM317.88 31V19.576H324.664V20.84H319.32V24.408H321.016C322.157 24.408 323.043 24.552 323.672 24.84C324.301 25.1173 324.739 25.5013 324.984 25.992C325.229 26.472 325.352 27.0267 325.352 27.656C325.352 28.3493 325.213 28.9467 324.936 29.448C324.669 29.9493 324.232 30.3333 323.624 30.6C323.016 30.8667 322.216 31 321.224 31H317.88ZM321.08 29.768C322.104 29.768 322.824 29.5973 323.24 29.256C323.656 28.904 323.864 28.3707 323.864 27.656C323.864 27.1653 323.763 26.776 323.56 26.488C323.368 26.1893 323.048 25.976 322.6 25.848C322.163 25.72 321.576 25.656 320.84 25.656H319.32V29.768H321.08ZM330.748 19.576C332.241 19.576 333.329 19.8693 334.012 20.456C334.695 21.0427 335.036 21.8693 335.036 22.936C335.036 23.4053 334.956 23.8587 334.796 24.296C334.647 24.7227 334.396 25.1067 334.044 25.448C333.692 25.7893 333.223 26.0613 332.636 26.264C332.049 26.456 331.329 26.552 330.476 26.552H329.164V31H327.724V19.576H330.748ZM330.62 20.808H329.164V25.32H330.316C331.041 25.32 331.644 25.2453 332.124 25.096C332.604 24.936 332.961 24.6853 333.196 24.344C333.431 24.0027 333.548 23.5547 333.548 23C333.548 22.264 333.313 21.7147 332.844 21.352C332.375 20.9893 331.633 20.808 330.62 20.808ZM343.783 31L342.407 27.464H337.879L336.519 31H335.062L339.527 19.528H340.823L345.271 31H343.783ZM340.695 22.728C340.663 22.6427 340.609 22.488 340.535 22.264C340.46 22.04 340.385 21.8107 340.311 21.576C340.247 21.3307 340.193 21.144 340.151 21.016C340.097 21.2293 340.039 21.448 339.975 21.672C339.921 21.8853 339.863 22.0827 339.799 22.264C339.745 22.4453 339.697 22.6 339.655 22.728L338.359 26.184H341.975L340.695 22.728ZM349.324 31H347.884V20.84H344.316V19.576H352.876V20.84H349.324V31ZM354.599 31V19.576H356.039V24.408H358.183C359.25 24.408 360.098 24.552 360.727 24.84C361.356 25.128 361.81 25.5173 362.087 26.008C362.364 26.4987 362.503 27.048 362.503 27.656C362.503 28.328 362.348 28.9147 362.039 29.416C361.74 29.9173 361.287 30.3067 360.679 30.584C360.071 30.8613 359.298 31 358.359 31H354.599ZM358.215 29.768C359.143 29.768 359.842 29.5973 360.311 29.256C360.78 28.904 361.015 28.3707 361.015 27.656C361.015 27.1653 360.898 26.776 360.663 26.488C360.439 26.1893 360.103 25.976 359.655 25.848C359.218 25.72 358.668 25.656 358.007 25.656H356.039V29.768H358.215ZM369.318 31V19.576H377.894V31H376.47V20.84H370.758V31H369.318ZM390.989 25.272C390.989 26.1573 390.877 26.9627 390.653 27.688C390.429 28.4027 390.093 29.0213 389.645 29.544C389.207 30.0667 388.658 30.4667 387.997 30.744C387.346 31.0213 386.589 31.16 385.725 31.16C384.829 31.16 384.05 31.0213 383.389 30.744C382.727 30.456 382.178 30.056 381.741 29.544C381.303 29.0213 380.978 28.3973 380.765 27.672C380.551 26.9467 380.445 26.1413 380.445 25.256C380.445 24.0827 380.637 23.0587 381.021 22.184C381.405 21.3093 381.986 20.6267 382.765 20.136C383.554 19.6453 384.546 19.4 385.741 19.4C386.882 19.4 387.842 19.6453 388.621 20.136C389.399 20.616 389.986 21.2987 390.381 22.184C390.786 23.0587 390.989 24.088 390.989 25.272ZM381.965 25.272C381.965 26.232 382.098 27.0587 382.365 27.752C382.631 28.4453 383.042 28.9787 383.597 29.352C384.162 29.7253 384.871 29.912 385.725 29.912C386.589 29.912 387.293 29.7253 387.837 29.352C388.391 28.9787 388.802 28.4453 389.069 27.752C389.335 27.0587 389.469 26.232 389.469 25.272C389.469 23.832 389.17 22.7067 388.573 21.896C387.975 21.0747 387.031 20.664 385.741 20.664C384.877 20.664 384.162 20.8507 383.597 21.224C383.042 21.5867 382.631 22.1147 382.365 22.808C382.098 23.4907 381.965 24.312 381.965 25.272ZM405.142 31L403.766 27.464H399.238L397.878 31H396.422L400.886 19.528H402.182L406.63 31H405.142ZM402.054 22.728C402.022 22.6427 401.969 22.488 401.894 22.264C401.819 22.04 401.745 21.8107 401.67 21.576C401.606 21.3307 401.553 21.144 401.51 21.016C401.457 21.2293 401.398 21.448 401.334 21.672C401.281 21.8853 401.222 22.0827 401.158 22.264C401.105 22.4453 401.057 22.6 401.014 22.728L399.718 26.184H403.334L402.054 22.728ZM411.457 19.576C412.406 19.576 413.201 19.6667 413.841 19.848C414.491 20.0293 414.977 20.328 415.297 20.744C415.627 21.16 415.793 21.7147 415.793 22.408C415.793 22.856 415.707 23.256 415.537 23.608C415.377 23.9493 415.131 24.2373 414.801 24.472C414.481 24.696 414.086 24.8507 413.617 24.936V25.016C414.097 25.0907 414.529 25.2293 414.913 25.432C415.307 25.6347 415.617 25.9227 415.841 26.296C416.065 26.6693 416.177 27.1547 416.177 27.752C416.177 28.4453 416.017 29.0373 415.697 29.528C415.377 30.008 414.918 30.376 414.321 30.632C413.734 30.8773 413.03 31 412.209 31H408.193V19.576H411.457ZM411.745 24.44C412.726 24.44 413.398 24.2853 413.761 23.976C414.123 23.656 414.305 23.1867 414.305 22.568C414.305 21.9387 414.081 21.4907 413.633 21.224C413.195 20.9467 412.491 20.808 411.521 20.808H409.633V24.44H411.745ZM409.633 25.64V29.784H411.937C412.95 29.784 413.654 29.5867 414.049 29.192C414.443 28.7973 414.641 28.28 414.641 27.64C414.641 27.2347 414.55 26.8827 414.369 26.584C414.198 26.2853 413.905 26.056 413.489 25.896C413.083 25.7253 412.529 25.64 411.825 25.64H409.633ZM422.215 31H420.775V20.84H417.207V19.576H425.767V20.84H422.215V31ZM437.145 25.272C437.145 26.1573 437.033 26.9627 436.809 27.688C436.585 28.4027 436.249 29.0213 435.801 29.544C435.364 30.0667 434.814 30.4667 434.153 30.744C433.502 31.0213 432.745 31.16 431.881 31.16C430.985 31.16 430.206 31.0213 429.545 30.744C428.884 30.456 428.334 30.056 427.897 29.544C427.46 29.0213 427.134 28.3973 426.921 27.672C426.708 26.9467 426.601 26.1413 426.601 25.256C426.601 24.0827 426.793 23.0587 427.177 22.184C427.561 21.3093 428.142 20.6267 428.921 20.136C429.71 19.6453 430.702 19.4 431.897 19.4C433.038 19.4 433.998 19.6453 434.777 20.136C435.556 20.616 436.142 21.2987 436.537 22.184C436.942 23.0587 437.145 24.088 437.145 25.272ZM428.121 25.272C428.121 26.232 428.254 27.0587 428.521 27.752C428.788 28.4453 429.198 28.9787 429.753 29.352C430.318 29.7253 431.028 29.912 431.881 29.912C432.745 29.912 433.449 29.7253 433.993 29.352C434.548 28.9787 434.958 28.4453 435.225 27.752C435.492 27.0587 435.625 26.232 435.625 25.272C435.625 23.832 435.326 22.7067 434.729 21.896C434.132 21.0747 433.188 20.664 431.897 20.664C431.033 20.664 430.318 20.8507 429.753 21.224C429.198 21.5867 428.788 22.1147 428.521 22.808C428.254 23.4907 428.121 24.312 428.121 25.272Z" fill="#FF6B00"/>
</g>
<defs>
<filter id="filter0_d_5_26" x="0" y="0" width="707" height="60" filterUnits="userSpaceOnUse" color-interpolation-filters="sRGB">
<feFlood flood-opacity="0" result="BackgroundImageFix"/>
<feColorMatrix in="SourceAlpha" type="matrix" values="0 0 0 0 0 0 0 0 0 0 0 0 0 0 0 0 0 0 127 0" result="hardAlpha"/>
<feOffset dy="4"/>
<feGaussianBlur stdDeviation="2"/>
<feComposite in2="hardAlpha" operator="out"/>
<feColorMatrix type="matrix" values="0 0 0 0 0 0 0 0 0 0 0 0 0 0 0 0 0 0 0.25 0"/>
<feBlend mode="normal" in2="BackgroundImageFix" result="effect1_dropShadow_5_26"/>
<feBlend mode="normal" in="SourceGraphic" in2="effect1_dropShadow_5_26" result="shape"/>
</filter>
</defs>
</svg>
