<svg width="699" height="48" viewBox="0 0 699 48" fill="none" xmlns="http://www.w3.org/2000/svg">
<rect x="0.5" y="0.5" width="698" height="47" rx="7.5" fill="#162136"/>
<rect x="0.5" y="0.5" width="698" height="47" rx="7.5" stroke="#2A3B55"/>
<path d="M247.917 25.6667H247.258L247.025 25.4417C247.87 24.4617 248.334 23.2106 248.333 21.9167C248.333 20.8454 248.016 19.7981 247.42 18.9073C246.825 18.0166 245.979 17.3223 244.99 16.9123C244 16.5023 242.911 16.3951 241.86 16.6041C240.809 16.8131 239.844 17.329 239.087 18.0865C238.329 18.844 237.813 19.8092 237.604 20.8599C237.395 21.9107 237.502 22.9998 237.912 23.9895C238.322 24.9793 239.017 25.8253 239.907 26.4205C240.798 27.0157 241.845 27.3333 242.917 27.3333C244.258 27.3333 245.492 26.8417 246.442 26.025L246.667 26.2583V26.9167L250.833 31.075L252.075 29.8333L247.917 25.6667ZM242.917 25.6667C240.842 25.6667 239.167 23.9917 239.167 21.9167C239.167 19.8417 240.842 18.1667 242.917 18.1667C244.992 18.1667 246.667 19.8417 246.667 21.9167C246.667 23.9917 244.992 25.6667 242.917 25.6667Z" fill="#6B7280"/>
<path d="M268.409 30V18.3636H272.477C273.288 18.3636 273.956 18.5038 274.483 18.7841C275.009 19.0606 275.402 19.4337 275.659 19.9034C275.917 20.3693 276.045 20.8864 276.045 21.4545C276.045 21.9545 275.956 22.3674 275.778 22.6932C275.604 23.0189 275.373 23.2765 275.085 23.4659C274.801 23.6553 274.492 23.7955 274.159 23.8864V24C274.515 24.0227 274.873 24.1477 275.233 24.375C275.593 24.6023 275.894 24.928 276.136 25.3523C276.379 25.7765 276.5 26.2955 276.5 26.9091C276.5 27.4924 276.367 28.017 276.102 28.483C275.837 28.9489 275.419 29.3182 274.847 29.5909C274.275 29.8636 273.53 30 272.614 30H268.409ZM269.818 28.75H272.614C273.534 28.75 274.188 28.572 274.574 28.2159C274.964 27.8561 275.159 27.4205 275.159 26.9091C275.159 26.5152 275.059 26.1515 274.858 25.8182C274.657 25.4811 274.371 25.2121 274 25.0114C273.629 24.8068 273.189 24.7045 272.682 24.7045H269.818V28.75ZM269.818 23.4773H272.432C272.856 23.4773 273.239 23.3939 273.58 23.2273C273.924 23.0606 274.197 22.8258 274.398 22.5227C274.602 22.2197 274.705 21.8636 274.705 21.4545C274.705 20.9432 274.527 20.5095 274.17 20.1534C273.814 19.7936 273.25 19.6136 272.477 19.6136H269.818V23.4773ZM278.634 30V21.2727H282.202C283.141 21.2727 283.887 21.4848 284.44 21.9091C284.993 22.3333 285.27 22.8939 285.27 23.5909C285.27 24.1212 285.113 24.5322 284.798 24.8239C284.484 25.1117 284.08 25.3068 283.588 25.4091C283.91 25.4545 284.223 25.5682 284.526 25.75C284.832 25.9318 285.086 26.1818 285.287 26.5C285.488 26.8144 285.588 27.2008 285.588 27.6591C285.588 28.1061 285.474 28.5057 285.247 28.858C285.02 29.2102 284.694 29.4886 284.27 29.6932C283.846 29.8977 283.338 30 282.747 30H278.634ZM279.906 28.7727H282.747C283.209 28.7727 283.571 28.6629 283.832 28.4432C284.094 28.2235 284.224 27.9242 284.224 27.5455C284.224 27.0947 284.094 26.7405 283.832 26.483C283.571 26.2216 283.209 26.0909 282.747 26.0909H279.906V28.7727ZM279.906 24.9318H282.202C282.562 24.9318 282.87 24.8826 283.128 24.7841C283.385 24.6818 283.582 24.5379 283.719 24.3523C283.859 24.1629 283.929 23.9394 283.929 23.6818C283.929 23.3144 283.776 23.0265 283.469 22.8182C283.162 22.6061 282.74 22.5 282.202 22.5H279.906V24.9318ZM291.277 30.1818C290.436 30.1818 289.711 29.9962 289.101 29.625C288.495 29.25 288.027 28.7273 287.697 28.0568C287.372 27.3826 287.209 26.5985 287.209 25.7045C287.209 24.8106 287.372 24.0227 287.697 23.3409C288.027 22.6553 288.485 22.1212 289.072 21.7386C289.663 21.3523 290.353 21.1591 291.141 21.1591C291.595 21.1591 292.044 21.2348 292.487 21.3864C292.93 21.5379 293.334 21.7841 293.697 22.125C294.061 22.4621 294.351 22.9091 294.567 23.4659C294.783 24.0227 294.891 24.7083 294.891 25.5227V26.0909H288.163V24.9318H293.527C293.527 24.4394 293.429 24 293.232 23.6136C293.038 23.2273 292.762 22.9223 292.402 22.6989C292.046 22.4754 291.625 22.3636 291.141 22.3636C290.607 22.3636 290.144 22.4962 289.754 22.7614C289.368 23.0227 289.071 23.3636 288.862 23.7841C288.654 24.2045 288.55 24.6553 288.55 25.1364V25.9091C288.55 26.5682 288.663 27.1269 288.891 27.5852C289.122 28.0398 289.442 28.3864 289.851 28.625C290.26 28.8598 290.735 28.9773 291.277 28.9773C291.629 28.9773 291.947 28.928 292.232 28.8295C292.519 28.7273 292.768 28.5758 292.976 28.375C293.184 28.1705 293.345 27.9167 293.459 27.6136L294.754 27.9773C294.618 28.4167 294.389 28.803 294.067 29.1364C293.745 29.4659 293.347 29.7235 292.874 29.9091C292.4 30.0909 291.868 30.1818 291.277 30.1818ZM295.999 32.5V28.75H296.726C296.904 28.5644 297.057 28.3636 297.186 28.1477C297.315 27.9318 297.427 27.6761 297.521 27.3807C297.62 27.0814 297.703 26.7178 297.771 26.2898C297.839 25.858 297.9 25.3371 297.953 24.7273L298.249 21.2727H303.794V28.75H305.135V32.5H303.794V30H297.339V32.5H295.999ZM298.249 28.75H302.453V22.5227H299.499L299.271 24.7273C299.177 25.6402 299.059 26.4375 298.919 27.1193C298.779 27.8011 298.555 28.3447 298.249 28.75ZM308.256 28.0227L312.46 21.2727H314.006V30H312.665V23.25L308.483 30H306.915V21.2727H308.256V28.0227ZM315.274 22.5227V21.2727H322.365V22.5227H319.501V30H318.161V22.5227H315.274ZM327.527 30.1818C326.686 30.1818 325.961 29.9962 325.351 29.625C324.745 29.25 324.277 28.7273 323.947 28.0568C323.622 27.3826 323.459 26.5985 323.459 25.7045C323.459 24.8106 323.622 24.0227 323.947 23.3409C324.277 22.6553 324.735 22.1212 325.322 21.7386C325.913 21.3523 326.603 21.1591 327.391 21.1591C327.845 21.1591 328.294 21.2348 328.737 21.3864C329.18 21.5379 329.584 21.7841 329.947 22.125C330.311 22.4621 330.601 22.9091 330.817 23.4659C331.033 24.0227 331.141 24.7083 331.141 25.5227V26.0909H324.413V24.9318H329.777C329.777 24.4394 329.679 24 329.482 23.6136C329.288 23.2273 329.012 22.9223 328.652 22.6989C328.296 22.4754 327.875 22.3636 327.391 22.3636C326.857 22.3636 326.394 22.4962 326.004 22.7614C325.618 23.0227 325.321 23.3636 325.112 23.7841C324.904 24.2045 324.8 24.6553 324.8 25.1364V25.9091C324.8 26.5682 324.913 27.1269 325.141 27.5852C325.372 28.0398 325.692 28.3864 326.101 28.625C326.51 28.8598 326.985 28.9773 327.527 28.9773C327.879 28.9773 328.197 28.928 328.482 28.8295C328.769 28.7273 329.018 28.5758 329.226 28.375C329.434 28.1705 329.595 27.9167 329.709 27.6136L331.004 27.9773C330.868 28.4167 330.639 28.803 330.317 29.1364C329.995 29.4659 329.597 29.7235 329.124 29.9091C328.65 30.0909 328.118 30.1818 327.527 30.1818ZM338.339 18.3636L341.794 28.1591H341.93L345.385 18.3636H346.862L342.589 30H341.135L336.862 18.3636H338.339ZM350.084 18.3636V30H348.675V18.3636H350.084ZM362.136 18.3636V30H360.773L354.432 20.8636H354.318V30H352.909V18.3636H354.273L360.636 27.5227H360.75V18.3636H362.136ZM370.615 28.0227L374.82 21.2727H376.365V30H375.024V23.25L370.842 30H369.274V21.2727H370.615V28.0227ZM378.048 30V28.75H378.366C378.628 28.75 378.846 28.6989 379.02 28.5966C379.194 28.4905 379.334 28.3068 379.44 28.0455C379.55 27.7803 379.634 27.4129 379.69 26.9432C379.751 26.4697 379.795 25.8674 379.821 25.1364L379.98 21.2727H385.798V30H384.457V22.5227H381.253L381.116 25.6364C381.086 26.3523 381.022 26.983 380.923 27.5284C380.829 28.0701 380.683 28.5246 380.486 28.892C380.293 29.2595 380.035 29.536 379.713 29.7216C379.391 29.9072 378.988 30 378.503 30H378.048ZM389.599 28.0227L393.804 21.2727H395.349V30H394.009V23.25L389.827 30H388.259V21.2727H389.599V28.0227ZM404.874 30.2045C404.321 30.2045 403.819 30.1004 403.368 29.892C402.917 29.6799 402.559 29.375 402.294 28.9773C402.029 28.5758 401.896 28.0909 401.896 27.5227C401.896 27.0227 401.995 26.6174 402.192 26.3068C402.389 25.9924 402.652 25.7462 402.982 25.5682C403.311 25.3902 403.675 25.2576 404.072 25.1705C404.474 25.0795 404.877 25.0076 405.283 24.9545C405.813 24.8864 406.243 24.8352 406.572 24.8011C406.906 24.7633 407.148 24.7008 407.3 24.6136C407.455 24.5265 407.533 24.375 407.533 24.1591V24.1136C407.533 23.553 407.379 23.1174 407.072 22.8068C406.769 22.4962 406.309 22.3409 405.692 22.3409C405.052 22.3409 404.55 22.4811 404.186 22.7614C403.822 23.0417 403.567 23.3409 403.419 23.6591L402.146 23.2045C402.374 22.6742 402.677 22.2614 403.055 21.9659C403.438 21.6667 403.855 21.4583 404.305 21.3409C404.76 21.2197 405.207 21.1591 405.646 21.1591C405.927 21.1591 406.249 21.1932 406.612 21.2614C406.98 21.3258 407.334 21.4602 407.675 21.6648C408.019 21.8693 408.305 22.178 408.533 22.5909C408.76 23.0038 408.874 23.5568 408.874 24.25V30H407.533V28.8182H407.464C407.374 29.0076 407.222 29.2102 407.01 29.4261C406.798 29.642 406.516 29.8258 406.163 29.9773C405.811 30.1288 405.381 30.2045 404.874 30.2045ZM405.078 29C405.608 29 406.055 28.8958 406.419 28.6875C406.786 28.4792 407.063 28.2102 407.249 27.8807C407.438 27.5511 407.533 27.2045 407.533 26.8409V25.6136C407.476 25.6818 407.351 25.7443 407.158 25.8011C406.968 25.8542 406.749 25.9015 406.499 25.9432C406.252 25.9811 406.012 26.0152 405.777 26.0455C405.546 26.072 405.358 26.0947 405.214 26.1136C404.866 26.1591 404.54 26.233 404.237 26.3352C403.938 26.4337 403.696 26.5833 403.51 26.7841C403.328 26.9811 403.237 27.25 403.237 27.5909C403.237 28.0568 403.41 28.4091 403.754 28.6477C404.103 28.8826 404.544 29 405.078 29ZM411.321 33.2727V21.2727H412.616V22.6591H412.776C412.874 22.5076 413.01 22.3144 413.185 22.0795C413.363 21.8409 413.616 21.6288 413.946 21.4432C414.279 21.2538 414.73 21.1591 415.298 21.1591C416.033 21.1591 416.681 21.3428 417.241 21.7102C417.802 22.0777 418.24 22.5985 418.554 23.2727C418.868 23.947 419.026 24.7424 419.026 25.6591C419.026 26.5833 418.868 27.3845 418.554 28.0625C418.24 28.7367 417.804 29.2595 417.247 29.6307C416.69 29.9981 416.048 30.1818 415.321 30.1818C414.76 30.1818 414.312 30.089 413.974 29.9034C413.637 29.714 413.378 29.5 413.196 29.2614C413.014 29.0189 412.874 28.8182 412.776 28.6591H412.662V33.2727H411.321ZM412.639 25.6364C412.639 26.2955 412.736 26.8769 412.929 27.3807C413.122 27.8807 413.404 28.2727 413.776 28.5568C414.147 28.8371 414.601 28.9773 415.139 28.9773C415.7 28.9773 416.168 28.8295 416.543 28.5341C416.921 28.2348 417.205 27.8333 417.395 27.3295C417.588 26.822 417.685 26.2576 417.685 25.6364C417.685 25.0227 417.59 24.4697 417.401 23.9773C417.215 23.4811 416.933 23.089 416.554 22.8011C416.179 22.5095 415.707 22.3636 415.139 22.3636C414.594 22.3636 414.135 22.5019 413.764 22.7784C413.393 23.0511 413.113 23.4337 412.923 23.9261C412.734 24.4148 412.639 24.9848 412.639 25.6364ZM419.93 22.5227V21.2727H427.021V22.5227H424.158V30H422.817V22.5227H419.93ZM430.318 28.0227L434.523 21.2727H436.068V30H434.727V23.25L430.545 30H428.977V21.2727H430.318V28.0227ZM438.524 30V21.2727H439.865V25.0682H440.751L443.888 21.2727H445.615L442.092 25.4773L445.661 30H443.933L441.07 26.3182H439.865V30H438.524ZM447.982 33.2727C447.754 33.2727 447.552 33.2538 447.374 33.2159C447.196 33.1818 447.072 33.1477 447.004 33.1136L447.345 31.9318C447.671 32.0152 447.959 32.0455 448.209 32.0227C448.459 32 448.68 31.8883 448.874 31.6875C449.071 31.4905 449.25 31.1705 449.413 30.7273L449.663 30.0455L446.436 21.2727H447.891L450.3 28.2273H450.391L452.8 21.2727H454.254L450.55 31.2727C450.383 31.7235 450.177 32.0966 449.93 32.392C449.684 32.6913 449.398 32.9129 449.072 33.0568C448.75 33.2008 448.387 33.2727 447.982 33.2727ZM454.517 30V28.75H454.835C455.097 28.75 455.314 28.6989 455.489 28.5966C455.663 28.4905 455.803 28.3068 455.909 28.0455C456.019 27.7803 456.102 27.4129 456.159 26.9432C456.22 26.4697 456.263 25.8674 456.29 25.1364L456.449 21.2727H462.267V30H460.926V22.5227H457.722L457.585 25.6364C457.555 26.3523 457.491 26.983 457.392 27.5284C457.297 28.0701 457.152 28.5246 456.955 28.892C456.761 29.2595 456.504 29.536 456.182 29.7216C455.86 29.9072 455.456 30 454.972 30H454.517Z" fill="#6B7280"/>
</svg>
