<svg width="650" height="48" viewBox="0 0 650 48" fill="none" xmlns="http://www.w3.org/2000/svg">
<rect x="0.5" y="0.5" width="649" height="47" rx="7.5" fill="#162136"/>
<rect x="0.5" y="0.5" width="649" height="47" rx="7.5" stroke="#2A3B55"/>
<path d="M212.917 25.6667H212.258L212.025 25.4417C212.87 24.4617 213.334 23.2106 213.333 21.9167C213.333 20.8453 213.016 19.7981 212.42 18.9073C211.825 18.0166 210.979 17.3223 209.99 16.9123C209 16.5023 207.911 16.3951 206.86 16.6041C205.809 16.8131 204.844 17.329 204.087 18.0865C203.329 18.844 202.813 19.8092 202.604 20.8599C202.395 21.9107 202.502 22.9998 202.912 23.9895C203.322 24.9793 204.017 25.8253 204.907 26.4205C205.798 27.0156 206.845 27.3333 207.917 27.3333C209.258 27.3333 210.492 26.8417 211.442 26.025L211.667 26.2583V26.9167L215.833 31.075L217.075 29.8333L212.917 25.6667ZM207.917 25.6667C205.842 25.6667 204.167 23.9917 204.167 21.9167C204.167 19.8417 205.842 18.1667 207.917 18.1667C209.992 18.1667 211.667 19.8417 211.667 21.9167C211.667 23.9917 209.992 25.6667 207.917 25.6667Z" fill="#6B7280"/>
<path d="M233.409 30V18.3636H237.477C238.288 18.3636 238.956 18.5038 239.483 18.7841C240.009 19.0606 240.402 19.4337 240.659 19.9034C240.917 20.3693 241.045 20.8864 241.045 21.4545C241.045 21.9545 240.956 22.3674 240.778 22.6932C240.604 23.0189 240.373 23.2765 240.085 23.4659C239.801 23.6553 239.492 23.7955 239.159 23.8864V24C239.515 24.0227 239.873 24.1477 240.233 24.375C240.593 24.6023 240.894 24.928 241.136 25.3523C241.379 25.7765 241.5 26.2955 241.5 26.9091C241.5 27.4924 241.367 28.017 241.102 28.483C240.837 28.9489 240.419 29.3182 239.847 29.5909C239.275 29.8636 238.53 30 237.614 30H233.409ZM234.818 28.75H237.614C238.534 28.75 239.188 28.572 239.574 28.2159C239.964 27.8561 240.159 27.4205 240.159 26.9091C240.159 26.5152 240.059 26.1515 239.858 25.8182C239.657 25.4811 239.371 25.2121 239 25.0114C238.629 24.8068 238.189 24.7045 237.682 24.7045H234.818V28.75ZM234.818 23.4773H237.432C237.856 23.4773 238.239 23.3939 238.58 23.2273C238.924 23.0606 239.197 22.8258 239.398 22.5227C239.602 22.2197 239.705 21.8636 239.705 21.4545C239.705 20.9432 239.527 20.5095 239.17 20.1534C238.814 19.7936 238.25 19.6136 237.477 19.6136H234.818V23.4773ZM243.634 30V21.2727H247.202C248.141 21.2727 248.887 21.4848 249.44 21.9091C249.993 22.3333 250.27 22.8939 250.27 23.5909C250.27 24.1212 250.113 24.5322 249.798 24.8239C249.484 25.1117 249.08 25.3068 248.588 25.4091C248.91 25.4545 249.223 25.5682 249.526 25.75C249.832 25.9318 250.086 26.1818 250.287 26.5C250.488 26.8144 250.588 27.2008 250.588 27.6591C250.588 28.1061 250.474 28.5057 250.247 28.858C250.02 29.2102 249.694 29.4886 249.27 29.6932C248.846 29.8977 248.338 30 247.747 30H243.634ZM244.906 28.7727H247.747C248.209 28.7727 248.571 28.6629 248.832 28.4432C249.094 28.2235 249.224 27.9242 249.224 27.5455C249.224 27.0947 249.094 26.7405 248.832 26.483C248.571 26.2216 248.209 26.0909 247.747 26.0909H244.906V28.7727ZM244.906 24.9318H247.202C247.562 24.9318 247.87 24.8826 248.128 24.7841C248.385 24.6818 248.582 24.5379 248.719 24.3523C248.859 24.1629 248.929 23.9394 248.929 23.6818C248.929 23.3144 248.776 23.0265 248.469 22.8182C248.162 22.6061 247.74 22.5 247.202 22.5H244.906V24.9318ZM256.277 30.1818C255.436 30.1818 254.711 29.9962 254.101 29.625C253.495 29.25 253.027 28.7273 252.697 28.0568C252.372 27.3826 252.209 26.5985 252.209 25.7045C252.209 24.8106 252.372 24.0227 252.697 23.3409C253.027 22.6553 253.485 22.1212 254.072 21.7386C254.663 21.3523 255.353 21.1591 256.141 21.1591C256.595 21.1591 257.044 21.2348 257.487 21.3864C257.93 21.5379 258.334 21.7841 258.697 22.125C259.061 22.4621 259.351 22.9091 259.567 23.4659C259.783 24.0227 259.891 24.7083 259.891 25.5227V26.0909H253.163V24.9318H258.527C258.527 24.4394 258.429 24 258.232 23.6136C258.038 23.2273 257.762 22.9223 257.402 22.6989C257.046 22.4754 256.625 22.3636 256.141 22.3636C255.607 22.3636 255.144 22.4962 254.754 22.7614C254.368 23.0227 254.071 23.3636 253.862 23.7841C253.654 24.2045 253.55 24.6553 253.55 25.1364V25.9091C253.55 26.5682 253.663 27.1269 253.891 27.5852C254.122 28.0398 254.442 28.3864 254.851 28.625C255.26 28.8598 255.735 28.9773 256.277 28.9773C256.629 28.9773 256.947 28.928 257.232 28.8295C257.519 28.7273 257.768 28.5758 257.976 28.375C258.184 28.1705 258.345 27.9167 258.459 27.6136L259.754 27.9773C259.618 28.4167 259.389 28.803 259.067 29.1364C258.745 29.4659 258.347 29.7235 257.874 29.9091C257.4 30.0909 256.868 30.1818 256.277 30.1818ZM260.999 32.5V28.75H261.726C261.904 28.5644 262.057 28.3636 262.186 28.1477C262.315 27.9318 262.427 27.6761 262.521 27.3807C262.62 27.0814 262.703 26.7178 262.771 26.2898C262.839 25.858 262.9 25.3371 262.953 24.7273L263.249 21.2727H268.794V28.75H270.135V32.5H268.794V30H262.339V32.5H260.999ZM263.249 28.75H267.453V22.5227H264.499L264.271 24.7273C264.177 25.6402 264.059 26.4375 263.919 27.1193C263.779 27.8011 263.555 28.3447 263.249 28.75ZM273.256 28.0227L277.46 21.2727H279.006V30H277.665V23.25L273.483 30H271.915V21.2727H273.256V28.0227ZM280.274 22.5227V21.2727H287.365V22.5227H284.501V30H283.161V22.5227H280.274ZM292.527 30.1818C291.686 30.1818 290.961 29.9962 290.351 29.625C289.745 29.25 289.277 28.7273 288.947 28.0568C288.622 27.3826 288.459 26.5985 288.459 25.7045C288.459 24.8106 288.622 24.0227 288.947 23.3409C289.277 22.6553 289.735 22.1212 290.322 21.7386C290.913 21.3523 291.603 21.1591 292.391 21.1591C292.845 21.1591 293.294 21.2348 293.737 21.3864C294.18 21.5379 294.584 21.7841 294.947 22.125C295.311 22.4621 295.601 22.9091 295.817 23.4659C296.033 24.0227 296.141 24.7083 296.141 25.5227V26.0909H289.413V24.9318H294.777C294.777 24.4394 294.679 24 294.482 23.6136C294.288 23.2273 294.012 22.9223 293.652 22.6989C293.296 22.4754 292.875 22.3636 292.391 22.3636C291.857 22.3636 291.394 22.4962 291.004 22.7614C290.618 23.0227 290.321 23.3636 290.112 23.7841C289.904 24.2045 289.8 24.6553 289.8 25.1364V25.9091C289.8 26.5682 289.913 27.1269 290.141 27.5852C290.372 28.0398 290.692 28.3864 291.101 28.625C291.51 28.8598 291.985 28.9773 292.527 28.9773C292.879 28.9773 293.197 28.928 293.482 28.8295C293.769 28.7273 294.018 28.5758 294.226 28.375C294.434 28.1705 294.595 27.9167 294.709 27.6136L296.004 27.9773C295.868 28.4167 295.639 28.803 295.317 29.1364C294.995 29.4659 294.597 29.7235 294.124 29.9091C293.65 30.0909 293.118 30.1818 292.527 30.1818ZM308.521 25.0227V26.2727H303.703V25.0227H308.521ZM304.021 21.2727V30H302.68V21.2727H304.021ZM309.544 21.2727V30H308.203V21.2727H309.544ZM314.561 30.2045C314.008 30.2045 313.506 30.1004 313.055 29.892C312.605 29.6799 312.247 29.375 311.982 28.9773C311.716 28.5758 311.584 28.0909 311.584 27.5227C311.584 27.0227 311.682 26.6174 311.879 26.3068C312.076 25.9924 312.339 25.7462 312.669 25.5682C312.999 25.3902 313.362 25.2576 313.76 25.1705C314.161 25.0795 314.565 25.0076 314.97 24.9545C315.5 24.8864 315.93 24.8352 316.26 24.8011C316.593 24.7633 316.836 24.7008 316.987 24.6136C317.143 24.5265 317.22 24.375 317.22 24.1591V24.1136C317.22 23.553 317.067 23.1174 316.76 22.8068C316.457 22.4962 315.997 22.3409 315.379 22.3409C314.739 22.3409 314.237 22.4811 313.874 22.7614C313.51 23.0417 313.254 23.3409 313.107 23.6591L311.834 23.2045C312.061 22.6742 312.364 22.2614 312.743 21.9659C313.125 21.6667 313.542 21.4583 313.993 21.3409C314.447 21.2197 314.894 21.1591 315.334 21.1591C315.614 21.1591 315.936 21.1932 316.3 21.2614C316.667 21.3258 317.021 21.4602 317.362 21.6648C317.707 21.8693 317.993 22.178 318.22 22.5909C318.447 23.0038 318.561 23.5568 318.561 24.25V30H317.22V28.8182H317.152C317.061 29.0076 316.91 29.2102 316.697 29.4261C316.485 29.642 316.203 29.8258 315.851 29.9773C315.499 30.1288 315.069 30.2045 314.561 30.2045ZM314.766 29C315.296 29 315.743 28.8958 316.107 28.6875C316.474 28.4792 316.75 28.2102 316.936 27.8807C317.125 27.5511 317.22 27.2045 317.22 26.8409V25.6136C317.163 25.6818 317.038 25.7443 316.845 25.8011C316.656 25.8542 316.436 25.9015 316.186 25.9432C315.94 25.9811 315.699 26.0152 315.464 26.0455C315.233 26.072 315.046 26.0947 314.902 26.1136C314.554 26.1591 314.228 26.233 313.925 26.3352C313.625 26.4337 313.383 26.5833 313.197 26.7841C313.016 26.9811 312.925 27.25 312.925 27.5909C312.925 28.0568 313.097 28.4091 313.442 28.6477C313.79 28.8826 314.232 29 314.766 29ZM320.463 27.7727H321.895C321.925 28.1667 322.103 28.4659 322.429 28.6705C322.759 28.875 323.187 28.9773 323.713 28.9773C324.251 28.9773 324.711 28.8674 325.094 28.6477C325.476 28.4242 325.668 28.0644 325.668 27.5682C325.668 27.2765 325.596 27.0227 325.452 26.8068C325.308 26.5871 325.105 26.4167 324.844 26.2955C324.582 26.1742 324.274 26.1136 323.918 26.1136H322.418V24.9091H323.918C324.452 24.9091 324.846 24.7879 325.099 24.5455C325.357 24.303 325.486 24 325.486 23.6364C325.486 23.2462 325.348 22.9337 325.071 22.6989C324.795 22.4602 324.402 22.3409 323.895 22.3409C323.384 22.3409 322.957 22.4564 322.616 22.6875C322.276 22.9148 322.096 23.2083 322.077 23.5682H320.668C320.683 23.0985 320.827 22.6837 321.099 22.3239C321.372 21.9602 321.743 21.6761 322.213 21.4716C322.683 21.2633 323.221 21.1591 323.827 21.1591C324.44 21.1591 324.973 21.267 325.423 21.483C325.878 21.6951 326.228 21.9848 326.474 22.3523C326.724 22.7159 326.849 23.1288 326.849 23.5909C326.849 24.0833 326.711 24.4811 326.435 24.7841C326.158 25.0871 325.812 25.303 325.395 25.4318V25.5227C325.724 25.5455 326.01 25.6515 326.253 25.8409C326.499 26.0265 326.69 26.2708 326.827 26.5739C326.963 26.8731 327.031 27.2045 327.031 27.5682C327.031 28.0985 326.889 28.5606 326.605 28.9545C326.321 29.3447 325.931 29.6477 325.435 29.8636C324.938 30.0758 324.372 30.1818 323.736 30.1818C323.118 30.1818 322.565 30.0814 322.077 29.8807C321.588 29.6761 321.2 29.3939 320.912 29.0341C320.628 28.6705 320.478 28.25 320.463 27.7727ZM328.915 30V21.2727H332.483C333.422 21.2727 334.169 21.4848 334.722 21.9091C335.275 22.3333 335.551 22.8939 335.551 23.5909C335.551 24.1212 335.394 24.5322 335.08 24.8239C334.765 25.1117 334.362 25.3068 333.869 25.4091C334.191 25.4545 334.504 25.5682 334.807 25.75C335.114 25.9318 335.367 26.1818 335.568 26.5C335.769 26.8144 335.869 27.2008 335.869 27.6591C335.869 28.1061 335.756 28.5057 335.528 28.858C335.301 29.2102 334.975 29.4886 334.551 29.6932C334.127 29.8977 333.619 30 333.028 30H328.915ZM330.188 28.7727H333.028C333.491 28.7727 333.852 28.6629 334.114 28.4432C334.375 28.2235 334.506 27.9242 334.506 27.5455C334.506 27.0947 334.375 26.7405 334.114 26.483C333.852 26.2216 333.491 26.0909 333.028 26.0909H330.188V28.7727ZM330.188 24.9318H332.483C332.843 24.9318 333.152 24.8826 333.409 24.7841C333.667 24.6818 333.864 24.5379 334 24.3523C334.14 24.1629 334.21 23.9394 334.21 23.6818C334.21 23.3144 334.057 23.0265 333.75 22.8182C333.443 22.6061 333.021 22.5 332.483 22.5H330.188V24.9318ZM340.467 30.2045C339.914 30.2045 339.412 30.1004 338.962 29.892C338.511 29.6799 338.153 29.375 337.888 28.9773C337.623 28.5758 337.49 28.0909 337.49 27.5227C337.49 27.0227 337.589 26.6174 337.786 26.3068C337.982 25.9924 338.246 25.7462 338.575 25.5682C338.905 25.3902 339.268 25.2576 339.666 25.1705C340.068 25.0795 340.471 25.0076 340.876 24.9545C341.407 24.8864 341.837 24.8352 342.166 24.8011C342.5 24.7633 342.742 24.7008 342.893 24.6136C343.049 24.5265 343.126 24.375 343.126 24.1591V24.1136C343.126 23.553 342.973 23.1174 342.666 22.8068C342.363 22.4962 341.903 22.3409 341.286 22.3409C340.645 22.3409 340.143 22.4811 339.78 22.7614C339.416 23.0417 339.161 23.3409 339.013 23.6591L337.74 23.2045C337.967 22.6742 338.27 22.2614 338.649 21.9659C339.032 21.6667 339.448 21.4583 339.899 21.3409C340.354 21.2197 340.801 21.1591 341.24 21.1591C341.52 21.1591 341.842 21.1932 342.206 21.2614C342.573 21.3258 342.928 21.4602 343.268 21.6648C343.613 21.8693 343.899 22.178 344.126 22.5909C344.354 23.0038 344.467 23.5568 344.467 24.25V30H343.126V28.8182H343.058C342.967 29.0076 342.816 29.2102 342.604 29.4261C342.392 29.642 342.109 29.8258 341.757 29.9773C341.405 30.1288 340.975 30.2045 340.467 30.2045ZM340.672 29C341.202 29 341.649 28.8958 342.013 28.6875C342.38 28.4792 342.657 28.2102 342.842 27.8807C343.032 27.5511 343.126 27.2045 343.126 26.8409V25.6136C343.07 25.6818 342.945 25.7443 342.751 25.8011C342.562 25.8542 342.342 25.9015 342.092 25.9432C341.846 25.9811 341.606 26.0152 341.371 26.0455C341.14 26.072 340.952 26.0947 340.808 26.1136C340.46 26.1591 340.134 26.233 339.831 26.3352C339.532 26.4337 339.289 26.5833 339.104 26.7841C338.922 26.9811 338.831 27.25 338.831 27.5909C338.831 28.0568 339.003 28.4091 339.348 28.6477C339.696 28.8826 340.138 29 340.672 29ZM352.756 25.0227V26.2727H347.938V25.0227H352.756ZM348.256 21.2727V30H346.915V21.2727H348.256ZM353.778 21.2727V30H352.438V21.2727H353.778ZM357.568 28.0227L361.773 21.2727H363.318V30H361.977V23.25L357.795 30H356.227V21.2727H357.568V28.0227ZM369.433 30.1818C368.592 30.1818 367.867 29.9962 367.257 29.625C366.651 29.25 366.183 28.7273 365.854 28.0568C365.528 27.3826 365.365 26.5985 365.365 25.7045C365.365 24.8106 365.528 24.0227 365.854 23.3409C366.183 22.6553 366.642 22.1212 367.229 21.7386C367.82 21.3523 368.509 21.1591 369.297 21.1591C369.751 21.1591 370.2 21.2348 370.643 21.3864C371.087 21.5379 371.49 21.7841 371.854 22.125C372.217 22.4621 372.507 22.9091 372.723 23.4659C372.939 24.0227 373.047 24.7083 373.047 25.5227V26.0909H366.32V24.9318H371.683C371.683 24.4394 371.585 24 371.388 23.6136C371.195 23.2273 370.918 22.9223 370.558 22.6989C370.202 22.4754 369.782 22.3636 369.297 22.3636C368.763 22.3636 368.301 22.4962 367.911 22.7614C367.524 23.0227 367.227 23.3636 367.018 23.7841C366.81 24.2045 366.706 24.6553 366.706 25.1364V25.9091C366.706 26.5682 366.82 27.1269 367.047 27.5852C367.278 28.0398 367.598 28.3864 368.007 28.625C368.416 28.8598 368.892 28.9773 369.433 28.9773C369.786 28.9773 370.104 28.928 370.388 28.8295C370.676 28.7273 370.924 28.5758 371.132 28.375C371.34 28.1705 371.501 27.9167 371.615 27.6136L372.911 27.9773C372.774 28.4167 372.545 28.803 372.223 29.1364C371.901 29.4659 371.503 29.7235 371.03 29.9091C370.556 30.0909 370.024 30.1818 369.433 30.1818ZM379.041 27.7727H380.473C380.503 28.1667 380.681 28.4659 381.007 28.6705C381.337 28.875 381.765 28.9773 382.291 28.9773C382.829 28.9773 383.289 28.8674 383.672 28.6477C384.054 28.4242 384.246 28.0644 384.246 27.5682C384.246 27.2765 384.174 27.0227 384.03 26.8068C383.886 26.5871 383.683 26.4167 383.422 26.2955C383.161 26.1742 382.852 26.1136 382.496 26.1136H380.996V24.9091H382.496C383.03 24.9091 383.424 24.7879 383.678 24.5455C383.935 24.303 384.064 24 384.064 23.6364C384.064 23.2462 383.926 22.9337 383.649 22.6989C383.373 22.4602 382.981 22.3409 382.473 22.3409C381.962 22.3409 381.536 22.4564 381.195 22.6875C380.854 22.9148 380.674 23.2083 380.655 23.5682H379.246C379.261 23.0985 379.405 22.6837 379.678 22.3239C379.95 21.9602 380.321 21.6761 380.791 21.4716C381.261 21.2633 381.799 21.1591 382.405 21.1591C383.018 21.1591 383.551 21.267 384.001 21.483C384.456 21.6951 384.806 21.9848 385.053 22.3523C385.303 22.7159 385.428 23.1288 385.428 23.5909C385.428 24.0833 385.289 24.4811 385.013 24.7841C384.736 25.0871 384.39 25.303 383.973 25.4318V25.5227C384.303 25.5455 384.589 25.6515 384.831 25.8409C385.077 26.0265 385.268 26.2708 385.405 26.5739C385.541 26.8731 385.609 27.2045 385.609 27.5682C385.609 28.0985 385.467 28.5606 385.183 28.9545C384.899 29.3447 384.509 29.6477 384.013 29.8636C383.517 30.0758 382.95 30.1818 382.314 30.1818C381.696 30.1818 381.143 30.0814 380.655 29.8807C380.166 29.6761 379.778 29.3939 379.49 29.0341C379.206 28.6705 379.056 28.25 379.041 27.7727ZM390.061 30.2045C389.508 30.2045 389.006 30.1004 388.555 29.892C388.105 29.6799 387.747 29.375 387.482 28.9773C387.216 28.5758 387.084 28.0909 387.084 27.5227C387.084 27.0227 387.182 26.6174 387.379 26.3068C387.576 25.9924 387.839 25.7462 388.169 25.5682C388.499 25.3902 388.862 25.2576 389.26 25.1705C389.661 25.0795 390.065 25.0076 390.47 24.9545C391 24.8864 391.43 24.8352 391.76 24.8011C392.093 24.7633 392.336 24.7008 392.487 24.6136C392.643 24.5265 392.72 24.375 392.72 24.1591V24.1136C392.72 23.553 392.567 23.1174 392.26 22.8068C391.957 22.4962 391.497 22.3409 390.879 22.3409C390.239 22.3409 389.737 22.4811 389.374 22.7614C389.01 23.0417 388.754 23.3409 388.607 23.6591L387.334 23.2045C387.561 22.6742 387.864 22.2614 388.243 21.9659C388.625 21.6667 389.042 21.4583 389.493 21.3409C389.947 21.2197 390.394 21.1591 390.834 21.1591C391.114 21.1591 391.436 21.1932 391.8 21.2614C392.167 21.3258 392.521 21.4602 392.862 21.6648C393.207 21.8693 393.493 22.178 393.72 22.5909C393.947 23.0038 394.061 23.5568 394.061 24.25V30H392.72V28.8182H392.652C392.561 29.0076 392.41 29.2102 392.197 29.4261C391.985 29.642 391.703 29.8258 391.351 29.9773C390.999 30.1288 390.569 30.2045 390.061 30.2045ZM390.266 29C390.796 29 391.243 28.8958 391.607 28.6875C391.974 28.4792 392.25 28.2102 392.436 27.8807C392.625 27.5511 392.72 27.2045 392.72 26.8409V25.6136C392.663 25.6818 392.538 25.7443 392.345 25.8011C392.156 25.8542 391.936 25.9015 391.686 25.9432C391.44 25.9811 391.199 26.0152 390.964 26.0455C390.733 26.072 390.546 26.0947 390.402 26.1136C390.054 26.1591 389.728 26.233 389.425 26.3352C389.125 26.4337 388.883 26.5833 388.697 26.7841C388.516 26.9811 388.425 27.25 388.425 27.5909C388.425 28.0568 388.597 28.4091 388.942 28.6477C389.29 28.8826 389.732 29 390.266 29ZM396.509 30V21.2727H403.372V30H402.031V22.5227H397.849V30H396.509ZM412.548 21.2727V30H411.207V21.2727H412.548ZM412.026 25.4318V26.6818C411.723 26.7955 411.421 26.8958 411.122 26.983C410.823 27.0663 410.509 27.1326 410.179 27.1818C409.849 27.2273 409.488 27.25 409.094 27.25C408.105 27.25 407.312 26.983 406.713 26.4489C406.118 25.9148 405.821 25.1136 405.821 24.0455V21.25H407.162V24.0455C407.162 24.4924 407.247 24.8598 407.418 25.1477C407.588 25.4356 407.819 25.6496 408.111 25.7898C408.402 25.9299 408.73 26 409.094 26C409.662 26 410.175 25.9489 410.634 25.8466C411.096 25.7405 411.56 25.6023 412.026 25.4318ZM417.577 30.2045C417.024 30.2045 416.522 30.1004 416.071 29.892C415.62 29.6799 415.262 29.375 414.997 28.9773C414.732 28.5758 414.599 28.0909 414.599 27.5227C414.599 27.0227 414.698 26.6174 414.895 26.3068C415.092 25.9924 415.355 25.7462 415.685 25.5682C416.014 25.3902 416.378 25.2576 416.776 25.1705C417.177 25.0795 417.58 25.0076 417.986 24.9545C418.516 24.8864 418.946 24.8352 419.276 24.8011C419.609 24.7633 419.851 24.7008 420.003 24.6136C420.158 24.5265 420.236 24.375 420.236 24.1591V24.1136C420.236 23.553 420.082 23.1174 419.776 22.8068C419.473 22.4962 419.012 22.3409 418.395 22.3409C417.755 22.3409 417.253 22.4811 416.889 22.7614C416.526 23.0417 416.27 23.3409 416.122 23.6591L414.849 23.2045C415.077 22.6742 415.38 22.2614 415.759 21.9659C416.141 21.6667 416.558 21.4583 417.009 21.3409C417.463 21.2197 417.91 21.1591 418.349 21.1591C418.63 21.1591 418.952 21.1932 419.315 21.2614C419.683 21.3258 420.037 21.4602 420.378 21.6648C420.723 21.8693 421.009 22.178 421.236 22.5909C421.463 23.0038 421.577 23.5568 421.577 24.25V30H420.236V28.8182H420.168C420.077 29.0076 419.925 29.2102 419.713 29.4261C419.501 29.642 419.219 29.8258 418.866 29.9773C418.514 30.1288 418.084 30.2045 417.577 30.2045ZM417.781 29C418.312 29 418.759 28.8958 419.122 28.6875C419.49 28.4792 419.766 28.2102 419.952 27.8807C420.141 27.5511 420.236 27.2045 420.236 26.8409V25.6136C420.179 25.6818 420.054 25.7443 419.861 25.8011C419.671 25.8542 419.452 25.9015 419.202 25.9432C418.955 25.9811 418.715 26.0152 418.48 26.0455C418.249 26.072 418.062 26.0947 417.918 26.1136C417.569 26.1591 417.243 26.233 416.94 26.3352C416.641 26.4337 416.399 26.5833 416.213 26.7841C416.031 26.9811 415.94 27.25 415.94 27.5909C415.94 28.0568 416.113 28.4091 416.457 28.6477C416.806 28.8826 417.247 29 417.781 29ZM427.57 30.1818C426.751 30.1818 426.047 29.9886 425.456 29.6023C424.865 29.2159 424.411 28.6837 424.092 28.0057C423.774 27.3277 423.615 26.553 423.615 25.6818C423.615 24.7955 423.778 24.0133 424.104 23.3352C424.433 22.6534 424.892 22.1212 425.479 21.7386C426.07 21.3523 426.759 21.1591 427.547 21.1591C428.161 21.1591 428.714 21.2727 429.206 21.5C429.698 21.7273 430.102 22.0455 430.416 22.4545C430.731 22.8636 430.926 23.3409 431.001 23.8864H429.661C429.558 23.4886 429.331 23.1364 428.979 22.8295C428.63 22.5189 428.161 22.3636 427.57 22.3636C427.047 22.3636 426.589 22.5 426.195 22.7727C425.804 23.0417 425.5 23.4223 425.28 23.9148C425.064 24.4034 424.956 24.9773 424.956 25.6364C424.956 26.3106 425.062 26.8977 425.274 27.3977C425.49 27.8977 425.793 28.286 426.183 28.5625C426.577 28.839 427.039 28.9773 427.57 28.9773C427.918 28.9773 428.234 28.9167 428.518 28.7955C428.803 28.6742 429.043 28.5 429.24 28.2727C429.437 28.0455 429.577 27.7727 429.661 27.4545H431.001C430.926 27.9697 430.738 28.4337 430.439 28.8466C430.143 29.2557 429.751 29.5814 429.263 29.8239C428.778 30.0625 428.214 30.1818 427.57 30.1818ZM432.274 22.5227V21.2727H439.365V22.5227H436.501V30H435.161V22.5227H432.274ZM442.662 28.0227L446.866 21.2727H448.412V30H447.071V23.25L442.889 30H441.321V21.2727H442.662V28.0227Z" fill="#6B7280"/>
</svg>
