<svg width="32" height="25" viewBox="0 0 32 25" fill="none" xmlns="http://www.w3.org/2000/svg">
<path d="M5.81752 24.8758V23.2211C5.81752 22.5867 5.43327 22.1731 4.77464 22.1731C4.44539 22.1731 4.08864 22.2834 3.84164 22.642C3.64964 22.3386 3.37527 22.1731 2.96364 22.1731C2.68914 22.1731 2.41489 22.2558 2.19527 22.5592V22.2283H1.61902V24.8758H2.19527V23.4141C2.19527 22.9454 2.44227 22.7246 2.82652 22.7246C3.21052 22.7246 3.40277 22.9729 3.40277 23.4141V24.8758H3.97902V23.4141C3.97902 22.9454 4.25327 22.7246 4.61002 22.7246C4.99427 22.7246 5.18627 22.9729 5.18627 23.4141V24.8758H5.81752ZM14.3514 22.2283H13.4185V21.4285H12.8423V22.2283H12.3209V22.7522H12.8421V23.9657C12.8421 24.5725 13.0891 24.9309 13.7478 24.9309C13.9948 24.9309 14.269 24.8483 14.4613 24.738L14.2965 24.2415C14.1319 24.3518 13.9399 24.3794 13.8026 24.3794C13.5283 24.3794 13.4185 24.214 13.4185 23.9381V22.7522H14.3514V22.2283ZM19.2359 22.173C18.9066 22.173 18.6871 22.3386 18.5499 22.5592V22.2283H17.9736V24.8758H18.5499V23.3866C18.5499 22.9454 18.7419 22.6971 19.0986 22.6971C19.2084 22.6971 19.3456 22.7248 19.4554 22.7523L19.62 22.2008C19.5103 22.1731 19.3456 22.1731 19.2359 22.1731M11.8544 22.449C11.5799 22.2559 11.1958 22.1733 10.7841 22.1733C10.1256 22.1733 9.68664 22.5042 9.68664 23.0282C9.68664 23.4695 10.0159 23.7176 10.5921 23.8004L10.8665 23.828C11.1684 23.8831 11.333 23.9658 11.333 24.1038C11.333 24.2968 11.1135 24.4347 10.7293 24.4347C10.345 24.4347 10.0433 24.2968 9.85114 24.1589L9.57677 24.6001C9.87864 24.8207 10.2903 24.931 10.7018 24.931C11.4701 24.931 11.9093 24.5726 11.9093 24.0761C11.9093 23.6073 11.5525 23.3591 11.0036 23.2764L10.7293 23.2488C10.4823 23.2211 10.2903 23.1661 10.2903 23.0006C10.2903 22.8076 10.4823 22.6973 10.7841 22.6973C11.1135 22.6973 11.4428 22.8351 11.6074 22.9179L11.8544 22.449ZM27.1663 22.1733C26.8369 22.1733 26.6174 22.3387 26.4801 22.5593V22.2284H25.9039V24.8759H26.4801V23.3867C26.4801 22.9455 26.6723 22.6973 27.0289 22.6973C27.1388 22.6973 27.276 22.7249 27.3858 22.7524L27.5504 22.2009C27.4406 22.1733 27.276 22.1733 27.1663 22.1733ZM19.8121 23.5522C19.8121 24.3519 20.3609 24.931 21.2116 24.931C21.5958 24.931 21.8701 24.8484 22.1445 24.6278L21.8701 24.1589C21.6506 24.3244 21.4311 24.4071 21.1841 24.4071C20.7176 24.4071 20.3884 24.0762 20.3884 23.5522C20.3884 23.0558 20.7176 22.7248 21.1841 22.6973C21.4311 22.6973 21.6506 22.7799 21.8701 22.9455L22.1445 22.4767C21.8701 22.2559 21.5958 22.1733 21.2116 22.1733C20.3609 22.1733 19.8121 22.7524 19.8121 23.5522ZM25.1356 23.5522V22.2284H24.5594V22.5593C24.3673 22.3112 24.0929 22.1733 23.7361 22.1733C22.9953 22.1733 22.419 22.7524 22.419 23.5522C22.419 24.3519 22.9953 24.931 23.7361 24.931C24.1203 24.931 24.3948 24.7932 24.5594 24.545V24.8759H25.1356V23.5522ZM23.0226 23.5522C23.0226 23.0833 23.3245 22.6973 23.8184 22.6973C24.2849 22.6973 24.6143 23.0558 24.6143 23.5522C24.6143 24.021 24.2849 24.4071 23.8184 24.4071C23.3245 24.3794 23.0226 24.021 23.0226 23.5522ZM16.1351 22.1733C15.3668 22.1733 14.8179 22.7248 14.8179 23.5522C14.8179 24.3795 15.3666 24.931 16.1625 24.931C16.5466 24.931 16.9309 24.8207 17.2328 24.5726L16.9583 24.1589C16.7388 24.3244 16.4644 24.4347 16.19 24.4347C15.8333 24.4347 15.4765 24.2692 15.3941 23.8003H17.3425V23.5798C17.37 22.7248 16.8761 22.1733 16.1351 22.1733ZM16.135 22.6696C16.4916 22.6696 16.7388 22.8903 16.7935 23.304H15.4215C15.4764 22.9455 15.7234 22.6696 16.135 22.6696ZM30.4315 23.5522V21.1804H29.8553V22.5593C29.6631 22.3112 29.3888 22.1733 29.032 22.1733C28.2911 22.1733 27.7149 22.7524 27.7149 23.5522C27.7149 24.3519 28.2911 24.931 29.032 24.931C29.4163 24.931 29.6906 24.7932 29.8553 24.545V24.8759H30.4315V23.5522ZM28.3186 23.5522C28.3186 23.0833 28.6204 22.6973 29.1144 22.6973C29.5809 22.6973 29.9101 23.0558 29.9101 23.5522C29.9101 24.021 29.5809 24.4071 29.1144 24.4071C28.6204 24.3794 28.3186 24.021 28.3186 23.5522ZM9.05527 23.5522V22.2284H8.47902V22.5593C8.28689 22.3112 8.01252 22.1733 7.65577 22.1733C6.91489 22.1733 6.33864 22.7524 6.33864 23.5522C6.33864 24.3519 6.91489 24.931 7.65577 24.931C8.04002 24.931 8.31439 24.7932 8.47902 24.545V24.8759H9.05527V23.5522ZM6.91489 23.5522C6.91489 23.0833 7.21677 22.6973 7.71064 22.6973C8.17714 22.6973 8.50652 23.0558 8.50652 23.5522C8.50652 24.021 8.17714 24.4071 7.71064 24.4071C7.21677 24.3794 6.91489 24.021 6.91489 23.5522Z" fill="black"/>
<path d="M11.6622 2.12354H20.306V17.733H11.6622V2.12354Z" fill="#FF5F00"/>
<path d="M12.2111 9.92827C12.2111 6.75678 13.6929 3.94372 15.9704 2.12349C14.2966 0.799749 12.1838 0 9.87875 0C4.41788 0 0 4.44007 0 9.92827C0 15.4165 4.41788 19.8565 9.87863 19.8565C12.1836 19.8565 14.2965 19.0568 15.9704 17.7329C13.6929 15.9403 12.2111 13.0997 12.2111 9.92827Z" fill="#EB001B"/>
<path d="M31.9683 9.92827C31.9683 15.4163 27.5504 19.8565 22.0897 19.8565C19.7847 19.8565 17.6718 19.0568 15.9979 17.7329C18.3029 15.9128 19.7573 13.0997 19.7573 9.92827C19.7573 6.75678 18.2754 3.94372 15.9979 2.12349C17.6717 0.799749 19.7847 0 22.0897 0C27.5504 0 31.9683 4.46771 31.9683 9.92827Z" fill="#F79E1B"/>
</svg>
