<svg width="32" height="32" viewBox="0 0 32 32" fill="none" xmlns="http://www.w3.org/2000/svg">
<path d="M18.6627 5.33325C19.1437 5.33325 19.6158 5.46337 20.029 5.70983C20.4421 5.9563 20.7809 6.30993 21.0094 6.73325L21.6574 7.93325C21.8859 8.35658 22.2246 8.7102 22.6377 8.95667C23.0509 9.20314 23.523 9.33326 24.004 9.33325H26.6667C27.3739 9.33325 28.0522 9.6142 28.5523 10.1143C29.0524 10.6144 29.3334 11.2927 29.3334 11.9999V23.9999C29.3334 24.7072 29.0524 25.3854 28.5523 25.8855C28.0522 26.3856 27.3739 26.6666 26.6667 26.6666H5.33335C4.62611 26.6666 3.94783 26.3856 3.44774 25.8855C2.94764 25.3854 2.66669 24.7072 2.66669 23.9999V11.9999C2.66669 11.2927 2.94764 10.6144 3.44774 10.1143C3.94783 9.6142 4.62611 9.33325 5.33335 9.33325H7.99602C8.47658 9.33328 8.94822 9.20344 9.36106 8.95747C9.7739 8.71151 10.1126 8.35855 10.3414 7.93592L10.9934 6.73059C11.2221 6.30796 11.5608 5.955 11.9736 5.70903C12.3865 5.46306 12.8581 5.33323 13.3387 5.33325H18.6627Z" stroke="#FF6B00" stroke-width="2" stroke-linecap="round" stroke-linejoin="round"/>
<path d="M16 21.3333C18.2091 21.3333 20 19.5424 20 17.3333C20 15.1241 18.2091 13.3333 16 13.3333C13.7909 13.3333 12 15.1241 12 17.3333C12 19.5424 13.7909 21.3333 16 21.3333Z" stroke="#FF6B00" stroke-width="2" stroke-linecap="round" stroke-linejoin="round"/>
</svg>
