<svg width="50" height="50" viewBox="0 0 50 50" fill="none" xmlns="http://www.w3.org/2000/svg">
<path d="M10.4167 22.9167L13.5417 13.5417H36.4583L39.5833 22.9167M36.4583 33.3334C35.6295 33.3334 34.8347 33.0041 34.2486 32.4181C33.6626 31.832 33.3333 31.0372 33.3333 30.2084C33.3333 29.3796 33.6626 28.5847 34.2486 27.9986C34.8347 27.4126 35.6295 27.0834 36.4583 27.0834C37.2871 27.0834 38.082 27.4126 38.668 27.9986C39.2541 28.5847 39.5833 29.3796 39.5833 30.2084C39.5833 31.0372 39.2541 31.832 38.668 32.4181C38.082 33.0041 37.2871 33.3334 36.4583 33.3334ZM13.5417 33.3334C12.7129 33.3334 11.918 33.0041 11.332 32.4181C10.7459 31.832 10.4167 31.0372 10.4167 30.2084C10.4167 29.3796 10.7459 28.5847 11.332 27.9986C11.918 27.4126 12.7129 27.0834 13.5417 27.0834C14.3705 27.0834 15.1653 27.4126 15.7514 27.9986C16.3374 28.5847 16.6667 29.3796 16.6667 30.2084C16.6667 31.0372 16.3374 31.832 15.7514 32.4181C15.1653 33.0041 14.3705 33.3334 13.5417 33.3334ZM39.4167 12.5C39 11.2917 37.8333 10.4167 36.4583 10.4167H13.5417C12.1667 10.4167 11 11.2917 10.5833 12.5L6.25 25V41.6667C6.25 42.2192 6.46949 42.7491 6.86019 43.1398C7.25089 43.5305 7.7808 43.75 8.33333 43.75H10.4167C10.9692 43.75 11.4991 43.5305 11.8898 43.1398C12.2805 42.7491 12.5 42.2192 12.5 41.6667V39.5834H37.5V41.6667C37.5 42.2192 37.7195 42.7491 38.1102 43.1398C38.5009 43.5305 39.0308 43.75 39.5833 43.75H41.6667C42.2192 43.75 42.7491 43.5305 43.1398 43.1398C43.5305 42.7491 43.75 42.2192 43.75 41.6667V25L39.4167 12.5Z" fill="#FF6B00"/>
</svg>
