<svg width="32" height="32" viewBox="0 0 32 32" fill="none" xmlns="http://www.w3.org/2000/svg">
<path d="M23.9999 24.6667C25.1066 24.6667 25.9999 23.7733 25.9999 22.6667C25.9999 21.56 25.1066 20.6667 23.9999 20.6667C22.8933 20.6667 21.9999 21.56 21.9999 22.6667C21.9999 23.7733 22.8933 24.6667 23.9999 24.6667ZM25.9999 12.6667H22.6666V16H28.6133L25.9999 12.6667ZM7.99992 24.6667C9.10659 24.6667 9.99992 23.7733 9.99992 22.6667C9.99992 21.56 9.10659 20.6667 7.99992 20.6667C6.89325 20.6667 5.99992 21.56 5.99992 22.6667C5.99992 23.7733 6.89325 24.6667 7.99992 24.6667ZM26.6666 10.6667L30.6666 16V22.6667H27.9999C27.9999 24.88 26.2133 26.6667 23.9999 26.6667C21.7866 26.6667 19.9999 24.88 19.9999 22.6667H11.9999C11.9999 24.88 10.2133 26.6667 7.99992 26.6667C5.78659 26.6667 3.99992 24.88 3.99992 22.6667H1.33325V8.00001C1.33325 6.52001 2.51992 5.33334 3.99992 5.33334H22.6666V10.6667H26.6666ZM3.99992 8.00001V20H5.01325C5.74659 19.1867 6.81325 18.6667 7.99992 18.6667C9.18659 18.6667 10.2533 19.1867 10.9866 20H19.9999V8.00001H3.99992Z" fill="#FF6B00"/>
</svg>
