<svg width="32" height="32" viewBox="0 0 32 32" fill="none" xmlns="http://www.w3.org/2000/svg">
<path d="M24 1.33325H8.00004C4.31814 1.33325 1.33337 4.31802 1.33337 7.99992V23.9999C1.33337 27.6818 4.31814 30.6666 8.00004 30.6666H24C27.6819 30.6666 30.6667 27.6818 30.6667 23.9999V7.99992C30.6667 4.31802 27.6819 1.33325 24 1.33325Z" stroke="#FF6B00" stroke-width="2" stroke-linecap="round" stroke-linejoin="round"/>
<path d="M9.33337 11.3333C9.4921 13.4756 10.2136 15.5131 11.4033 17.1786C12.5929 18.8442 14.1952 20.06 16 20.6666V11.3333M22.6667 11.3333C21.7778 13.5555 20 15.111 17.3334 15.9999M17.3334 15.9999C20 16.8888 21.7778 18.4444 22.6667 20.6666M17.3334 15.9999H16" stroke="#FF6B00" stroke-width="2" stroke-linecap="round" stroke-linejoin="round"/>
</svg>
