<svg width="50" height="50" viewBox="0 0 50 50" fill="none" xmlns="http://www.w3.org/2000/svg">
<path fill-rule="evenodd" clip-rule="evenodd" d="M20.8333 8.33335C20.8333 7.22829 21.2723 6.16848 22.0537 5.38708C22.8351 4.60567 23.8949 4.16669 25 4.16669H31.25C32.355 4.16669 33.4149 4.60567 34.1963 5.38708C34.9777 6.16848 35.4166 7.22829 35.4166 8.33335V10.4167C37.0742 10.4167 38.664 11.0752 39.8361 12.2473C41.0082 13.4194 41.6666 15.0091 41.6666 16.6667V39.5834C41.6666 41.241 41.0082 42.8307 39.8361 44.0028C38.664 45.1749 37.0742 45.8334 35.4166 45.8334H14.5833C12.9257 45.8334 11.336 45.1749 10.1639 44.0028C8.99179 42.8307 8.33331 41.241 8.33331 39.5834V22.2229C8.33331 20.8706 8.77192 19.5548 9.58331 18.4729L13.75 12.9167C14.3321 12.1405 15.087 11.5104 15.9549 11.0765C16.8227 10.6426 17.7797 10.4167 18.75 10.4167H20.8333V8.33335ZM31.25 8.33335V10.4167H25V8.33335H31.25ZM17.0833 15.4167C17.2774 15.1579 17.529 14.9479 17.8183 14.8033C18.1076 14.6587 18.4266 14.5834 18.75 14.5834H35.4166C35.9692 14.5834 36.4991 14.8028 36.8898 15.1935C37.2805 15.5842 37.5 16.1142 37.5 16.6667V39.5834C37.5 40.1359 37.2805 40.6658 36.8898 41.0565C36.4991 41.4472 35.9692 41.6667 35.4166 41.6667H14.5833C14.0308 41.6667 13.5009 41.4472 13.1102 41.0565C12.7195 40.6658 12.5 40.1359 12.5 39.5834V22.2229C12.5 21.7722 12.6462 21.3336 12.9166 20.9729L17.0833 15.4167ZM20.8333 25C20.8333 24.4475 20.6138 23.9176 20.2231 23.5269C19.8324 23.1362 19.3025 22.9167 18.75 22.9167C18.1974 22.9167 17.6675 23.1362 17.2768 23.5269C16.8861 23.9176 16.6666 24.4475 16.6666 25V35.4167C16.6666 35.9692 16.8861 36.4991 17.2768 36.8898C17.6675 37.2805 18.1974 37.5 18.75 37.5C19.3025 37.5 19.8324 37.2805 20.2231 36.8898C20.6138 36.4991 20.8333 35.9692 20.8333 35.4167V25Z" fill="#FF6B00"/>
</svg>
