<svg width="60" height="60" viewBox="0 0 60 60" fill="none" xmlns="http://www.w3.org/2000/svg">
<path d="M53.6062 20.2125H49.4025C49.1704 20.2161 48.948 20.3056 48.7781 20.4637C47.4356 18.3206 46.0462 16.605 44.9681 15.5269C41.2181 11.7769 18.7181 11.7769 14.9681 15.5269C13.8937 16.6031 12.5119 18.3075 11.1769 20.4356C11.0163 20.2966 10.8117 20.2189 10.5994 20.2162H6.39374C5.87811 20.2162 5.45624 20.64 5.45624 21.1537V23.0475C5.45624 23.5612 5.86874 24.06 6.37499 24.1594L8.92499 24.6469C6.72374 29.5556 5.42624 35.6644 7.46624 41.7844V45.4162C7.46624 46.4531 7.72874 47.2912 8.05311 47.2912H12.8569C13.1812 47.2912 13.4437 46.4531 13.4437 45.4162V42.4462C17.7525 42.8587 23.85 43.3087 29.9662 43.3087C36.0262 43.3087 42.1912 42.8662 46.4925 42.4575V45.4162C46.4925 46.4531 46.755 47.2912 47.0775 47.2912H51.8812C52.2037 47.2912 52.4662 46.4531 52.4662 45.4162L52.4625 41.7825C54.5006 35.67 53.2069 29.565 51.0094 24.6562L53.6194 24.1594C53.8741 24.1014 54.1025 23.9607 54.2687 23.7592C54.4349 23.5577 54.5297 23.3067 54.5381 23.0456V21.1519C54.5381 20.9042 54.4401 20.6666 54.2655 20.4909C54.0909 20.3153 53.8539 20.2158 53.6062 20.2144V20.2125ZM13.3256 35.4506C12.4441 35.4213 11.6084 35.0505 10.9952 34.4166C10.382 33.7826 10.0391 32.9351 10.0391 32.0531C10.0391 31.1711 10.382 30.3236 10.9952 29.6896C11.6084 29.0557 12.4441 28.6849 13.3256 28.6556C14.2071 28.6851 15.0427 29.0562 15.6557 29.6903C16.2688 30.3244 16.6114 31.172 16.6112 32.054C16.6109 32.936 16.2679 33.7834 15.6544 34.4172C15.041 35.051 14.2072 35.4216 13.3256 35.4506ZM10.4681 25.7194C12.2681 21.6 14.775 18.375 16.2937 16.8525C17.3887 15.7556 22.5562 14.5894 29.9662 14.5894C37.3762 14.5894 42.5437 15.7575 43.6406 16.8544C45.1594 18.3731 47.6644 21.5981 49.4644 25.7194C45.4669 26.1619 37.68 25.1381 29.9681 25.1381C22.2562 25.1381 14.4694 26.1619 10.4681 25.7194ZM46.6069 35.4506C45.7253 35.4213 44.8897 35.0505 44.2764 34.4166C43.6632 33.7826 43.3204 32.9351 43.3204 32.0531C43.3204 31.1711 43.6632 30.3236 44.2764 29.6896C44.8897 29.0557 45.7253 28.6849 46.6069 28.6556C47.4884 28.6851 48.3239 29.0562 48.937 29.6903C49.5501 30.3244 49.8927 31.172 49.8924 32.054C49.8922 32.936 49.5491 33.7834 48.9357 34.4172C48.3223 35.051 47.4884 35.4216 46.6069 35.4506Z" fill="#FF6B00"/>
</svg>
