<svg width="32" height="32" viewBox="0 0 32 32" fill="none" xmlns="http://www.w3.org/2000/svg">
<path d="M1.33337 5.33325H30.6667V7.99992H1.33337V5.33325ZM1.33337 23.9999H30.6667V26.6666H1.33337V23.9999ZM26.1627 19.8853L25.9307 18.7253H23.332L22.9187 19.8759L20.836 19.8813C22.1756 16.6724 23.1694 14.2946 23.8174 12.7479C23.9854 12.3435 24.2898 12.1417 24.7307 12.1426C25.0694 12.1453 25.6227 12.1453 26.3907 12.1426L28 19.8826L26.1627 19.8853ZM23.9174 17.1359H25.592L24.9654 14.2293L23.9174 17.1359ZM10.496 12.1413L12.5894 12.1439L9.35337 19.8853L7.23337 19.8839C6.51693 17.123 5.99071 15.0764 5.65471 13.7439C5.55204 13.3346 5.34804 13.0493 4.95337 12.9146C4.60315 12.7937 4.01871 12.6075 3.20004 12.3559V12.1426H6.54537C7.12404 12.1426 7.46137 12.4226 7.57071 12.9959L8.39737 17.3813L10.496 12.1413ZM15.4654 12.1439L13.812 19.8839L11.8187 19.8813L13.472 12.1413L15.4654 12.1439ZM19.508 11.9999C20.1027 11.9999 20.8547 12.1839 21.2867 12.3559L20.9374 13.9613C20.5467 13.8039 19.904 13.5919 19.364 13.6013C18.5774 13.6133 18.092 13.9426 18.092 14.2586C18.092 14.7706 18.9347 15.0293 19.804 15.5906C20.7947 16.2306 20.924 16.8039 20.9134 17.4279C20.8987 18.7226 19.804 19.9999 17.4934 19.9999C16.4387 19.9839 16.0587 19.8959 15.2 19.5919L15.5627 17.9173C16.4374 18.2826 16.8094 18.3986 17.556 18.3986C18.2427 18.3986 18.8307 18.1226 18.836 17.6413C18.8387 17.2986 18.6294 17.1293 17.86 16.7053C17.0907 16.2813 16.012 15.6973 16.0267 14.5186C16.044 13.0119 17.4774 11.9999 19.508 11.9999Z" fill="#FF6B00"/>
</svg>
