<svg width="50" height="50" viewBox="0 0 50 50" fill="none" xmlns="http://www.w3.org/2000/svg">
<path d="M39.6625 13.2875C39.8982 13.0525 40.1868 12.8773 40.504 12.7767C40.8213 12.6761 41.1581 12.653 41.4861 12.7093C41.8142 12.7656 42.1239 12.8997 42.3895 13.1004C42.6551 13.301 42.8687 13.5624 43.0125 13.8625C44.2132 16.3782 44.6679 19.1852 44.3229 21.9512C43.9779 24.7172 42.8476 27.3265 41.0658 29.4702C39.284 31.6138 36.9254 33.2021 34.269 34.047C31.6127 34.8919 28.7699 34.958 26.0771 34.2375L18.0688 42.2479C16.7012 43.6155 14.8465 44.3837 12.9125 44.3837C10.9786 44.3837 9.12379 43.6155 7.75627 42.2479C6.38875 40.8804 5.62048 39.0257 5.62048 37.0917C5.62048 35.1577 6.38875 33.303 7.75627 31.9354L15.7667 23.925C15.0462 21.2323 15.1123 18.3895 15.9572 15.7331C16.8021 13.0768 18.3904 10.7181 20.534 8.93632C22.6777 7.15454 25.287 6.02425 28.053 5.67925C30.8191 5.33425 33.626 5.78898 36.1417 6.98961C36.4421 7.13353 36.7036 7.34737 36.9043 7.61321C37.105 7.87906 37.239 8.18914 37.2951 8.51747C37.3512 8.8458 37.3278 9.1828 37.2268 9.50021C37.1258 9.81762 36.9501 10.1062 36.7146 10.3417L31.3271 15.7313C30.9476 16.1242 30.7376 16.6505 30.7424 17.1967C30.7471 17.7429 30.9662 18.2655 31.3525 18.6517C31.7387 19.038 32.2613 19.2571 32.8075 19.2618C33.3538 19.2666 33.88 19.0566 34.2729 18.6771L39.6625 13.2875ZM37.2188 21.6229C36.6402 22.2111 35.9509 22.679 35.1907 22.9994C34.4304 23.3199 33.6142 23.4867 32.7892 23.4901C31.9641 23.4936 31.1466 23.3337 30.3837 23.0196C29.6207 22.7055 28.9276 22.2434 28.3441 21.6601C27.7606 21.0768 27.2984 20.3837 26.9842 19.6209C26.6699 18.858 26.5098 18.0405 26.513 17.2155C26.5163 16.3904 26.6829 15.5742 27.0032 14.8139C27.3235 14.0535 27.7911 13.3641 28.3792 12.7854L31.3271 9.83753C29.539 9.5819 27.7152 9.79543 26.0346 10.4572C24.3539 11.1189 22.8741 12.2061 21.7403 13.6122C20.6065 15.0183 19.8576 16.6949 19.5671 18.4776C19.2767 20.2604 19.4545 22.088 20.0834 23.7813C20.2218 24.1548 20.2502 24.5602 20.1653 24.9493C20.0803 25.3385 19.8856 25.6952 19.6042 25.9771L10.7021 34.8813C10.1159 35.4672 9.78641 36.2621 9.78622 37.091C9.78602 37.9198 10.1151 38.7148 10.7011 39.3011C11.287 39.8873 12.0819 40.2168 12.9107 40.217C13.7396 40.2172 14.5346 39.8881 15.1209 39.3021L24.025 30.3979C24.3071 30.1161 24.6641 29.9211 25.0537 29.8362C25.4433 29.7513 25.8491 29.7799 26.2229 29.9188C27.9162 30.5476 29.7438 30.7255 31.5266 30.435C33.3093 30.1445 34.9859 29.3957 36.392 28.2619C37.7981 27.1281 38.8853 25.6482 39.547 23.9676C40.2088 22.2869 40.4223 20.4631 40.1667 18.675L37.2188 21.6229Z" fill="#FF6B00"/>
</svg>
