<svg width="43" height="43" viewBox="0 0 43 43" fill="none" xmlns="http://www.w3.org/2000/svg">
<path d="M37.9813 10.3531C35.5151 7.53824 32.1686 5.41598 28.3511 4.24598C24.5336 3.07599 20.4108 2.909 16.4871 3.76544C12.5633 4.62188 9.0087 6.46462 6.25819 9.06821C3.50768 11.6718 1.68052 14.9233 1.00024 18.425M39.0021 1V11.25H27.3361M5.01917 32.6469C7.4847 35.4629 10.8312 37.5861 14.649 38.7568C18.4667 39.9275 22.5902 40.0948 26.5145 39.2383C30.4388 38.3817 33.9938 36.5384 36.7442 33.9341C39.4946 31.3298 41.3212 28.0774 42.0002 24.575M4.00131 42V31.75H15.6673" stroke="#FF6B00" stroke-width="2" stroke-linecap="round" stroke-linejoin="round"/>
</svg>
